<?xml version="1.0" encoding="UTF-8"?><svg id="Layer_1" xmlns="http://www.w3.org/2000/svg" viewBox="0 0 19.25 19.88"><defs><style>.cls-1{fill:none;stroke:#9e9e9e;stroke-linecap:round;stroke-linejoin:round;}</style></defs><path class="cls-1" d="M18.24,3.76l-2.77-2.76c-.32-.32-.76-.5-1.22-.5H2.23c-.95,0-1.73,.77-1.73,1.73v15.43c0,.95,.77,1.73,1.73,1.73h2.84c.95,0,1.73-.77,1.73-1.73v-2.21c0-.95,.77-1.73,1.73-1.73h.37c.67,0,1.27,.38,1.56,.98l1.77,3.7c.29,.6,.89,.98,1.56,.98h2.73c1.31,0,2.14-1.4,1.52-2.55l-1.55-2.86c-.36-.67-.24-1.5,.3-2.04l1.49-1.49c.32-.32,.51-.76,.51-1.22V4.99c0-.46-.18-.9-.51-1.22Zm-5.74,4.57c0,.95-.62,1.7-1.58,1.7H6.79s0-1.21,0-1.21h-.47c-.25,0-.46-.21-.46-.46s.21-.46,.46-.46h.47v-.28h-.47c-.25,0-.46-.21-.46-.46s.21-.46,.46-.46h.47v-.28h-.47c-.25,0-.46-.21-.46-.46s.21-.46,.46-.46h.47v-1.24h1.2v-.47c0-.25,.21-.46,.46-.46s.46,.21,.46,.46v.47h.28v-.47c0-.25,.21-.46,.46-.46s.46,.21,.46,.46v.47h.28v-.47c0-.25,.21-.46,.46-.46s.46,.21,.46,.46v.47h1.2v1.7s0,.02,0,.03v2.34Z"/></svg>